PathFileType	4	(X/Y/Z)	C:/Users/opensim2020/Desktop/walking_exp_matlab/subject02_walking15_straight_04.trc																																																																																																																												
DataRate	CameraRate	NumFrames	NumMarkers	Units	OrigDataRate	OrigDataStartFrame	OrigNumFrames																																																																																																																								
100	100	6	42	mm	100	1698	152																																																																																																																								
Frame#	Time	LFHD			RFHD			LBHD			RBHD			C7			T10			CLAV			STRN			RBAK			LSHO			LUPA			LELB			LFRM			LWRA			LWRB			LFIN			RSHO			RUPA			RELB			RFRM			RWRA			RWRB			RFIN			LASI			RASI			LPSI			RPSI			LTHI			LKNE			LTIB			LANK			LHEE			LTOE			RTHI			RKNE			RTIB			RANK			RHEE			RTOE			*39			*40			*41		
		X1	Y1	Z1	X2	Y2	Z2	X3	Y3	Z3	X4	Y4	Z4	X5	Y5	Z5	X6	Y6	Z6	X7	Y7	Z7	X8	Y8	Z8	X9	Y9	Z9	X10	Y10	Z10	X11	Y11	Z11	X12	Y12	Z12	X13	Y13	Z13	X14	Y14	Z14	X15	Y15	Z15	X16	Y16	Z16	X17	Y17	Z17	X18	Y18	Z18	X19	Y19	Z19	X20	Y20	Z20	X21	Y21	Z21	X22	Y22	Z22	X23	Y23	Z23	X24	Y24	Z24	X25	Y25	Z25	X26	Y26	Z26	X27	Y27	Z27	X28	Y28	Z28	X29	Y29	Z29	X30	Y30	Z30	X31	Y31	Z31	X32	Y32	Z32	X33	Y33	Z33	X34	Y34	Z34	X35	Y35	Z35	X36	Y36	Z36	X37	Y37	Z37	X38	Y38	Z38	X39	Y39	Z39	X40	Y40	Z40	X41	Y41	Z41	X42	Y42	Z42
																																																																																																																															
20	0.19	-860.27356	1736.7124	962.3078	-865.74567	1725.06689	1106.71362	-981.83783	1647.63403	952.16095	-998.89063	1632.96851	1094.17029	-1028.04309	1509.37183	1018.56488	-1073.66406	1236.72827	1038.17578	-884.09985	1447.85547	1027.51404	-829.35352	1278.58643	1054.28699	-1088.94263	1339.90417	1087.00464	-935.74286	1476.73755	849.91498	-976.37695	1285.08911	761.95496	-1011.3844	1154.78381	741.11029	-1046.01965	1035.82727	705.76025	-1034.52026	896.3703	699.38989	-1081.7384	920.94855	681.09247	-1089.86487	858.64978	660.40198	-978.64319	1493.66956	1211.54407	-1010.27765	1316.40942	1314.30127	-977.88568	1182.41504	1371.19202	-893.50574	1097.1748	1401.6991	-783.97485	1023.31958	1397.83398	-821.32312	990.56671	1424.17493	-755.47668	975.46619	1443.20203	-837.29144	970.29895	941.13837	-871.49341	951.08728	1187.2052	-1054.38208	1027.30347	992.25909	-1071.27856	1027.01819	1109.33691	-831.48334	668.70758	901.03729	-818.27155	474.82852	959.32635	-868.54047	287.97574	974.37347	-868.97723	73.09773	1030.06726	-903.77686	46.72196	1084.99036	-713.86218	39.80514	1015.20758	-1012.99213	663.10046	1271.18701	-1056.49805	463.42856	1263.68176	-1211.78162	363.36514	1248.04797	-1353.58997	242.49034	1197.22156	-1389.71838	235.19498	1125.401	-1340.17847	79.49046	1223.1897	-973.4248	1794.01953	1044.7002	-2846.05493	1034.26941	3356.93311	NaN	NaN	NaN
21	0.2	-846.9859	1739.68066	962.7373	-851.94171	1728.41968	1107.19873	-968.23248	1650.44434	952.86719	-985.0246	1636.16309	1095.08984	-1014.06372	1512.68665	1019.3725	-1059.85974	1239.77625	1038.89197	-870.62488	1450.82666	1028.89941	-815.84808	1281.49329	1055.85083	-1075.62305	1343.12415	1087.72998	-921.49036	1479.77234	851.01709	-960.66803	1287.29883	763.29327	-994.3786	1156.29431	742.72418	-1026.67358	1036.31323	708.57117	-1012.6156	896.98962	704.13702	-1060.20557	920.29547	684.68921	-1066.61951	857.05292	665.56281	-965.63971	1496.30371	1212.79553	-999.31635	1318.33752	1313.91003	-968.51056	1183.41565	1369.29883	-886.4527	1095.69312	1399.65222	-778.99475	1018.76721	1395.49304	-817.2356	987.24469	1421.79797	-751.95636	969.70453	1440.6709	-824.90424	973.50696	940.69293	-858.11816	954.27533	1187.66003	-1041.25098	1030.396	993.08838	-1058.53967	1029.82666	1109.66663	-823.82404	669.82159	900.83447	-814.51044	474.92142	958.81921	-866.62982	288.49493	973.52533	-869.10278	73.40564	1029.83875	-904.05505	47.07338	1085.08167	-713.90094	39.71893	1014.99744	-989.96509	664.7124	1273.14233	-1028.34033	464.46353	1266.2959	-1184.21057	366.33862	1249.4502	-1326.802	247.06915	1196.81262	-1363.51868	237.70998	1125.0896	-1312.63965	85.20564	1228.4989	-959.56976	1796.95203	1044.95081	-2845.29077	1034.21558	3360.57104	NaN	NaN	NaN
22	0.21	-832.55438	1742.30872	963.31592	-838.01746	1731.66528	1107.8728	-954.19232	1653.08057	953.98035	-971.10901	1639.42847	1096.07556	-1000.1377	1516.06152	1020.27679	-1046.21265	1242.87903	1039.63611	-857.09143	1453.88635	1030.37524	-802.43689	1284.48816	1057.34717	-1062.31445	1346.27747	1088.31653	-906.98584	1482.81311	852.25348	-944.74432	1289.51392	764.8924	-976.85553	1157.677	744.56464	-1006.74774	1036.5553	711.34625	-989.87115	897.56824	709.4068	-1037.59167	919.65076	688.58307	-1042.37476	855.77515	670.61023	-952.87469	1499.13062	1214.07227	-988.42303	1320.49512	1313.49695	-959.24457	1184.47375	1367.495	-879.75677	1094.24695	1397.51147	-774.44464	1014.17365	1393.19348	-813.82288	983.40674	1418.75281	-749.17517	963.42468	1437.75781	-812.52869	976.47351	940.41626	-844.85773	957.99756	1188.93286	-1028.26917	1033.71875	993.84625	-1045.87061	1032.89246	1109.77686	-816.63727	670.20667	900.74683	-811.30756	474.87799	958.19708	-865.10339	288.76282	972.47864	-869.1286	73.41042	1029.62097	-904.15924	47.17968	1084.9231	-714.00647	39.61351	1014.68054	-967.41962	666.703	1274.5498	-1000.20795	466.36081	1268.51819	-1156.18616	368.84653	1250.77954	-1299.02454	250.24416	1197.22839	-1336.28491	239.0392	1125.4646	-1282.68201	90.18367	1233.54517	-945.69739	1800.1095	1045.15515	-2846.16626	1034.34326	3356.89087	NaN	NaN	NaN
23	0.22	-819.40344	1745.10547	963.94708	-824.08813	1734.84253	1108.547	-940.48657	1655.92798	954.93677	-957.28693	1642.72327	1097.16296	-986.31451	1519.44556	1021.3006	-1032.77405	1246.06909	1040.34546	-843.7608	1456.8053	1031.7179	-789.17535	1287.4115	1058.67126	-1048.93408	1349.30005	1088.76855	-892.78424	1486.20239	853.46771	-928.48615	1291.80798	766.40179	-959.22083	1159.46399	746.3324	-986.08472	1037.01489	714.20648	-966.58099	898.25336	715.01288	-1014.15247	919.12061	692.84821	-1016.83801	854.54883	676.03839	-939.95544	1502.04614	1215.18323	-977.53302	1322.88147	1313.23547	-950.05255	1185.78076	1365.60645	-873.29138	1092.86389	1395.3446	-770.36731	1009.35724	1390.61597	-810.93744	979.73126	1415.75488	-747.07562	956.83258	1434.55078	-799.98145	979.31812	940.34521	-831.9209	962.2746	1190.76343	-1014.96375	1036.83374	994.40179	-1033.04492	1036.15259	1109.84619	-810.44092	670.6983	900.62537	-808.8703	474.85513	957.54681	-864.03333	288.68539	971.6629	-869.28174	73.39781	1029.38916	-904.33014	47.28141	1084.69507	-714.28442	39.5356	1014.23578	-945.40326	669.01184	1275.58313	-972.13757	468.65588	1270.14087	-1127.81299	370.8959	1251.97095	-1270.50208	252.31955	1198.0437	-1308.21667	239.05266	1126.18335	-1251.06213	94.30398	1238.29211	-931.73438	1803.35156	1045.80066	-2845.96167	1034.25989	3357.01172	NaN	NaN	NaN
24	0.23	-805.49359	1747.66785	964.81372	-810.08984	1737.8656	1109.32227	-926.77753	1658.95203	956.00073	-943.45874	1645.94055	1098.29553	-972.55853	1522.70972	1022.44202	-1019.37994	1249.20032	1041.00085	-830.37738	1459.75867	1033.27258	-775.98218	1290.25769	1059.93225	-1035.64441	1352.13452	1089.2085	-878.55585	1489.55432	854.76917	-912.19318	1294.03955	768.01135	-941.01642	1161.10205	748.32977	-965.008	1037.44629	717.51569	-942.57208	899.22638	721.22083	-990.04138	918.62695	697.27649	-990.65955	853.6366	681.70502	-926.93384	1504.83521	1216.37317	-966.5705	1325.37219	1313.02832	-940.82312	1187.14917	1363.82422	-867.08966	1091.55518	1393.18152	-766.88135	1004.47888	1388.05493	-808.76178	976.30847	1412.9978	-745.651	950.00903	1431.09753	-787.28784	981.98785	940.59052	-819.9137	966.30243	1192.46704	-1001.91791	1039.89978	994.82861	-1019.89099	1039.29761	1109.72241	-804.64514	671.3653	900.59039	-807.37555	475.00183	956.98505	-863.45221	288.63766	971.1095	-869.49371	73.43372	1029.20972	-904.50116	47.38332	1084.48071	-714.57147	39.44011	1013.76019	-923.93042	671.49518	1276.25549	-944.29572	471.16159	1271.6134	-1098.92432	372.35123	1252.77515	-1241.15784	253.06888	1199.13062	-1279.19446	237.82968	1127.46289	-1217.84705	96.61039	1242.73352	-917.65472	1806.31409	1046.6886	NaN	NaN	NaN	NaN	NaN	NaN
25	0.24	-791.2713	1749.97595	965.97278	-796.08429	1740.65308	1110.17249	-912.8277	1661.65417	957.13019	-929.65497	1648.98901	1099.39246	-958.92719	1525.81567	1023.70044	-1006.00989	1252.13684	1041.62573	-816.96881	1462.40173	1034.87415	-762.76276	1293.00867	1061.18518	-1022.07025	1354.58057	1089.38367	-864.48267	1492.87915	856.06793	-895.50122	1296.30334	769.66254	-922.37561	1162.85278	750.47284	-943.20245	1037.86853	721.09045	-917.71057	900.1051	727.94257	-965.31305	918.33679	702.17316	-963.72638	852.97772	687.62158	-914.07678	1507.43213	1217.54895	-955.54047	1327.86719	1312.94202	-931.61737	1188.54688	1362.13281	-861.12848	1090.34155	1391.09436	-763.84583	999.50562	1385.38159	-806.92151	972.76367	1410.13953	-744.84393	943.08813	1427.46289	-774.68097	984.65308	941.15405	-806.60675	971.03387	1194.74377	-988.94458	1042.73145	995.06073	-1006.55658	1042.35999	1109.53149	-799.13239	672.09344	900.68726	-806.25067	475.12878	956.43964	-863.50085	288.7962	970.97424	-869.73108	73.45869	1029.12817	-904.31738	47.29572	1084.21411	-715.04413	39.30867	1013.22577	-902.96832	674.15753	1276.89478	-916.78082	473.81342	1272.81299	-1070.26147	373.89447	1254.04028	-1210.84875	252.37335	1200.69604	-1249.31116	235.34502	1129.15186	-1183.60669	97.72121	1246.60999	-903.53943	1809.23486	1047.23047	NaN	NaN	NaN	NaN	NaN	NaN
